<svg width="90" height="24" viewBox="0 0 90 24" fill="none" xmlns="http://www.w3.org/2000/svg">
<path fill-rule="evenodd" clip-rule="evenodd" d="M18.5468 18.1166C18.7432 20.8266 18.7432 22.097 18.7432 23.4837H12.9066C12.9066 23.1817 12.9116 22.9053 12.9167 22.6252C12.9325 21.7541 12.949 20.8459 12.8176 19.0117C12.644 16.3264 11.5676 15.7296 9.58842 15.7296H7.83494H0.408691V10.8438H9.8662C12.3662 10.8438 13.6162 10.0268 13.6162 7.86363C13.6162 5.96153 12.3662 4.80885 9.8662 4.80885H0.408691V0.0279541H10.9079C16.5676 0.0279541 19.3801 2.89975 19.3801 7.48717C19.3801 10.9184 17.401 13.1562 14.7274 13.5291C16.9843 14.014 18.3038 15.3939 18.5468 18.1166Z" fill="black"/>
<path d="M0.408691 23.4838V19.8416H6.58005C7.61088 19.8416 7.8347 20.6629 7.8347 21.1527V23.4838H0.408691Z" fill="black"/>
<path d="M89.1056 6.89038H83.3123L80.6758 10.8438L78.1087 6.89038H71.8991L77.4843 15.0583L71.4134 23.5245H77.2067L80.2942 19.0117L83.3817 23.5245H89.5913L83.4857 14.7972L89.1056 6.89038Z" fill="url(#paint0_linear_206_386)"/>
<path d="M89.1056 6.89038H83.3123L80.6758 10.8438L78.1087 6.89038H71.8991L77.4843 15.0583L71.4134 23.5245H77.2067L80.2942 19.0117L83.3817 23.5245H89.5913L83.4857 14.7972L89.1056 6.89038Z" fill="black"/>
<path d="M31.4988 17.5944C30.9785 18.8998 30.0071 19.4593 28.4807 19.4593C26.7809 19.4593 25.3933 18.4896 25.2545 16.4383H36.1127V14.7599C36.1127 10.2471 33.3721 6.44287 28.2032 6.44287C23.3812 6.44287 19.7734 10.2098 19.7734 15.4686C19.7734 20.7646 23.3118 23.9721 28.2726 23.9721C32.3661 23.9721 35.2107 21.8462 36.0086 18.042L31.4988 17.5944ZM25.3239 13.5291C25.532 11.9627 26.3299 10.7692 28.1338 10.7692C29.799 10.7692 30.7009 12.0373 30.7703 13.5291H25.3239Z" fill="url(#paint1_linear_206_386)"/>
<path d="M31.4988 17.5944C30.9785 18.8998 30.0071 19.4593 28.4807 19.4593C26.7809 19.4593 25.3933 18.4896 25.2545 16.4383H36.1127V14.7599C36.1127 10.2471 33.3721 6.44287 28.2032 6.44287C23.3812 6.44287 19.7734 10.2098 19.7734 15.4686C19.7734 20.7646 23.3118 23.9721 28.2726 23.9721C32.3661 23.9721 35.2107 21.8462 36.0086 18.042L31.4988 17.5944ZM25.3239 13.5291C25.532 11.9627 26.3299 10.7692 28.1338 10.7692C29.799 10.7692 30.7009 12.0373 30.7703 13.5291H25.3239Z" fill="black"/>
<path d="M52.6148 9.72493C51.9557 7.78553 50.5334 6.44287 47.7928 6.44287C45.4686 6.44287 43.8034 7.56175 42.9708 9.38926V6.89042H37.351V23.5245H42.9708V15.3567C42.9708 12.8578 43.63 11.2168 45.4686 11.2168C47.1684 11.2168 47.5847 12.4102 47.5847 14.6854V23.5245H53.2046V15.3567C53.2046 12.8578 53.829 11.2168 55.7023 11.2168C57.4021 11.2168 57.7837 12.4102 57.7837 14.6854V23.5245H63.4036V13.0816C63.4036 9.61304 62.1548 6.44287 57.8878 6.44287C55.286 6.44287 53.4474 7.86012 52.6148 9.72493Z" fill="url(#paint2_linear_206_386)"/>
<path d="M52.6148 9.72493C51.9557 7.78553 50.5334 6.44287 47.7928 6.44287C45.4686 6.44287 43.8034 7.56175 42.9708 9.38926V6.89042H37.351V23.5245H42.9708V15.3567C42.9708 12.8578 43.63 11.2168 45.4686 11.2168C47.1684 11.2168 47.5847 12.4102 47.5847 14.6854V23.5245H53.2046V15.3567C53.2046 12.8578 53.829 11.2168 55.7023 11.2168C57.4021 11.2168 57.7837 12.4102 57.7837 14.6854V23.5245H63.4036V13.0816C63.4036 9.61304 62.1548 6.44287 57.8878 6.44287C55.286 6.44287 53.4474 7.86012 52.6148 9.72493Z" fill="black"/>
<path d="M65.2418 6.89044V23.5245H70.8617V6.89044H65.2418ZM65.2071 5.324H70.8964V0.0279541H65.2071V5.324Z" fill="url(#paint3_linear_206_386)"/>
<path d="M65.2418 6.89044V23.5245H70.8617V6.89044H65.2418ZM65.2071 5.324H70.8964V0.0279541H65.2071V5.324Z" fill="black"/>
<defs>
<linearGradient id="paint0_linear_206_386" x1="80.5023" y1="6.89038" x2="80.5023" y2="23.5245" gradientUnits="userSpaceOnUse">
<stop/>
<stop offset="1" stop-opacity="0"/>
</linearGradient>
<linearGradient id="paint1_linear_206_386" x1="27.943" y1="6.44287" x2="27.943" y2="23.9721" gradientUnits="userSpaceOnUse">
<stop/>
<stop offset="1" stop-opacity="0"/>
</linearGradient>
<linearGradient id="paint2_linear_206_386" x1="50.3773" y1="6.44287" x2="50.3773" y2="23.5245" gradientUnits="userSpaceOnUse">
<stop/>
<stop offset="1" stop-opacity="0"/>
</linearGradient>
<linearGradient id="paint3_linear_206_386" x1="68.0517" y1="0.0279541" x2="68.0517" y2="23.5245" gradientUnits="userSpaceOnUse">
<stop/>
<stop offset="1" stop-opacity="0"/>
</linearGradient>
</defs>
</svg>
